<?xml version="1.0" encoding="UTF-8"?>
<!-- SPDX-License-Identifier: GPL-3.0-or-later -->
<!-- Arrocco / CollectiCraft piece set. Generated by draw_pieces.py;
     edit freely, then rasterise with the same script. -->
<svg xmlns="http://www.w3.org/2000/svg" viewBox="0 0 56 56" width="56" height="56">
  <g id="mask" fill="#ffffff" stroke="#ffffff" stroke-width="4" stroke-linejoin="round">
    <polygon points="14.50,51.00 41.50,51.00 41.50,48.50 14.50,48.50" fill="#ffffff"/>
    <polygon points="14.50,48.80 41.50,48.80 37.00,45.50 19.00,45.50" fill="#ffffff"/>
    <polygon points="21.00,45.80 35.00,45.80 33.00,41.00 23.00,41.00" fill="#ffffff"/>
    <polygon points="23.50,41.50 32.50,41.50 35.00,36.50 21.00,36.50" fill="#ffffff"/>
    <circle cx="28.00" cy="28.50" r="8.20" fill="#ffffff"/>
    <polygon points="20.40,29.50 35.60,29.50 29.60,17.50 26.40,17.50" fill="#ffffff"/>
    <circle cx="28.00" cy="15.60" r="3.40" fill="#ffffff"/>
  </g>
  <g id="ink">
    <polygon points="14.50,51.00 41.50,51.00 41.50,48.50 14.50,48.50" fill="#000000"/>
    <polygon points="14.50,48.80 41.50,48.80 37.00,45.50 19.00,45.50" fill="#000000"/>
    <polygon points="21.00,45.80 35.00,45.80 33.00,41.00 23.00,41.00" fill="#000000"/>
    <polygon points="23.50,41.50 32.50,41.50 35.00,36.50 21.00,36.50" fill="#000000"/>
    <circle cx="28.00" cy="28.50" r="8.20" fill="#000000"/>
    <polygon points="20.40,29.50 35.60,29.50 29.60,17.50 26.40,17.50" fill="#000000"/>
    <circle cx="28.00" cy="15.60" r="3.40" fill="#000000"/>
    <polygon points="23.40,25.60 30.60,17.80 32.40,19.40 25.20,27.20" fill="#ffffff"/>
  </g>
</svg>
